<mxfile host="app.diagrams.net" modified="2023-10-26T03:35:37.464Z" agent="Mozilla/5.0 (Windows NT 10.0; Win64; x64) AppleWebKit/537.36 (KHTML, like Gecko) Chrome/118.0.0.0 Safari/537.36" etag="kWZHiJ2tTRVKx45OXMNI" version="22.0.8" type="github">
  <diagram name="Page-1" id="FbC8swXIy_oEBKriSHkB">
    <mxGraphModel dx="1877" dy="542" grid="1" gridSize="10" guides="1" tooltips="1" connect="1" arrows="1" fold="1" page="1" pageScale="1" pageWidth="827" pageHeight="1169" math="1" shadow="0">
      <root>
        <mxCell id="0" />
        <mxCell id="1" parent="0" />
        <mxCell id="oGL73V1aoYLtVQccRy2J-2" value="&lt;font style=&quot;font-size: 16px;&quot;&gt;change scope&lt;/font&gt;&lt;br&gt;&amp;nbsp;(email notification &lt;br&gt;+ confluence)" style="shape=step;perimeter=stepPerimeter;whiteSpace=wrap;html=1;fixedSize=1;fillColor=#dae8fc;strokeColor=#6c8ebf;gradientColor=#7ea6e0;" parent="1" vertex="1">
          <mxGeometry x="-720" y="450" width="180" height="100" as="geometry" />
        </mxCell>
        <mxCell id="oGL73V1aoYLtVQccRy2J-7" value="- Change scope confluence space -&amp;nbsp; https://confluence.asx.com.au/pages/viewpage.action?pageId=307115037&lt;br&gt;- Emergency change doesn&#39;t go through this process, please speak to Platform operation manager for more details" style="text;strokeColor=none;align=left;fillColor=none;html=1;verticalAlign=middle;whiteSpace=wrap;rounded=0;" parent="1" vertex="1">
          <mxGeometry x="-530" y="850" width="710" height="130" as="geometry" />
        </mxCell>
        <mxCell id="oGL73V1aoYLtVQccRy2J-8" value="&lt;span style=&quot;font-size: 16px;&quot;&gt;Dev / Sandbox &lt;br&gt;change &amp;amp; testing&lt;/span&gt;" style="shape=step;perimeter=stepPerimeter;whiteSpace=wrap;html=1;fixedSize=1;" parent="1" vertex="1">
          <mxGeometry x="-560" y="450" width="180" height="100" as="geometry" />
        </mxCell>
        <mxCell id="oGL73V1aoYLtVQccRy2J-9" value="&lt;font style=&quot;font-size: 16px;&quot;&gt;UAT change &lt;/font&gt;&lt;br&gt;communication&lt;br&gt;&amp;nbsp;/ execution / validation&amp;nbsp;" style="shape=step;perimeter=stepPerimeter;whiteSpace=wrap;html=1;fixedSize=1;" parent="1" vertex="1">
          <mxGeometry x="-240" y="450" width="180" height="100" as="geometry" />
        </mxCell>
        <mxCell id="oGL73V1aoYLtVQccRy2J-12" value="&lt;font style=&quot;font-size: 16px;&quot;&gt;Change Request&amp;nbsp;&lt;/font&gt;&lt;br&gt;&amp;nbsp;creation / review / sign off&amp;nbsp;" style="shape=step;perimeter=stepPerimeter;whiteSpace=wrap;html=1;fixedSize=1;fillColor=#dae8fc;gradientColor=#7ea6e0;strokeColor=#6c8ebf;" parent="1" vertex="1">
          <mxGeometry x="-90" y="350" width="180" height="100" as="geometry" />
        </mxCell>
        <mxCell id="oGL73V1aoYLtVQccRy2J-13" value="&lt;span style=&quot;font-size: 16px;&quot;&gt;Emerging Tech&lt;br&gt;&amp;nbsp;internal Change &lt;br&gt;review&amp;nbsp;&lt;/span&gt;" style="shape=step;perimeter=stepPerimeter;whiteSpace=wrap;html=1;fixedSize=1;fillColor=#dae8fc;gradientColor=#7ea6e0;strokeColor=#6c8ebf;" parent="1" vertex="1">
          <mxGeometry x="-400" y="450" width="180" height="100" as="geometry" />
        </mxCell>
        <mxCell id="oGL73V1aoYLtVQccRy2J-14" value="&lt;font style=&quot;font-size: 16px;&quot;&gt;Change Details&amp;nbsp;&lt;/font&gt;&lt;br&gt;&lt;span style=&quot;font-size: 11px;&quot;&gt;Instruction / runsheet&lt;/span&gt;&lt;br&gt;&lt;span style=&quot;font-size: 11px;&quot;&gt;/ resource /rollback &lt;/span&gt;&lt;br&gt;&lt;span style=&quot;font-size: 11px;&quot;&gt;/ validation /etc&lt;/span&gt;" style="shape=step;perimeter=stepPerimeter;whiteSpace=wrap;html=1;fixedSize=1;fillColor=#dae8fc;gradientColor=#7ea6e0;strokeColor=#6c8ebf;" parent="1" vertex="1">
          <mxGeometry x="-90" y="450" width="180" height="100" as="geometry" />
        </mxCell>
        <mxCell id="oGL73V1aoYLtVQccRy2J-15" value="&lt;span style=&quot;font-size: 16px;&quot;&gt;Client &lt;br&gt;communication&amp;nbsp;&lt;br&gt;&lt;/span&gt;" style="shape=step;perimeter=stepPerimeter;whiteSpace=wrap;html=1;fixedSize=1;fillColor=#dae8fc;gradientColor=#7ea6e0;strokeColor=#6c8ebf;" parent="1" vertex="1">
          <mxGeometry x="-90" y="550" width="180" height="100" as="geometry" />
        </mxCell>
        <mxCell id="oGL73V1aoYLtVQccRy2J-16" value="&lt;span style=&quot;font-size: 16px;&quot;&gt;change execution&amp;nbsp;&lt;br&gt;validation&amp;nbsp;&lt;br&gt;&lt;/span&gt;" style="shape=step;perimeter=stepPerimeter;whiteSpace=wrap;html=1;fixedSize=1;" parent="1" vertex="1">
          <mxGeometry x="70" y="450" width="180" height="100" as="geometry" />
        </mxCell>
        <mxCell id="oGL73V1aoYLtVQccRy2J-17" value="&lt;span style=&quot;font-size: 16px;&quot;&gt;Close change&lt;br&gt;&amp;nbsp;&lt;/span&gt;&lt;font style=&quot;font-size: 13px;&quot;&gt;(or post change review)&lt;/font&gt;" style="shape=step;perimeter=stepPerimeter;whiteSpace=wrap;html=1;fixedSize=1;fillColor=#dae8fc;gradientColor=#7ea6e0;strokeColor=#6c8ebf;" parent="1" vertex="1">
          <mxGeometry x="230" y="450" width="180" height="100" as="geometry" />
        </mxCell>
        <mxCell id="Ew1GcM3pDw3L42-EXIif-3" value="" style="shape=flexArrow;endArrow=classic;html=1;rounded=0;" parent="1" edge="1">
          <mxGeometry width="50" height="50" relative="1" as="geometry">
            <mxPoint x="-720" y="763.04" as="sourcePoint" />
            <mxPoint x="360" y="763" as="targetPoint" />
            <Array as="points">
              <mxPoint x="240" y="763" />
            </Array>
          </mxGeometry>
        </mxCell>
        <mxCell id="Ew1GcM3pDw3L42-EXIif-4" value="By last day of previous month&amp;nbsp;" style="shape=offPageConnector;whiteSpace=wrap;html=1;" parent="1" vertex="1">
          <mxGeometry x="-680" y="673" width="80" height="80" as="geometry" />
        </mxCell>
        <mxCell id="Ew1GcM3pDw3L42-EXIif-6" value="1st week&amp;nbsp;" style="shape=offPageConnector;whiteSpace=wrap;html=1;fillColor=#d5e8d4;gradientColor=#97d077;strokeColor=#82b366;" parent="1" vertex="1">
          <mxGeometry x="-540" y="673" width="80" height="80" as="geometry" />
        </mxCell>
        <mxCell id="Ew1GcM3pDw3L42-EXIif-7" value="1st Saturday 6-10pm" style="shape=offPageConnector;whiteSpace=wrap;html=1;fillColor=#d5e8d4;strokeColor=#82b366;fontStyle=1" parent="1" vertex="1">
          <mxGeometry x="-210" y="673" width="80" height="80" as="geometry" />
        </mxCell>
        <mxCell id="Ew1GcM3pDw3L42-EXIif-8" value="1st Thursday&amp;nbsp;" style="shape=offPageConnector;whiteSpace=wrap;html=1;" parent="1" vertex="1">
          <mxGeometry x="-370" y="673" width="80" height="80" as="geometry" />
        </mxCell>
        <mxCell id="Ew1GcM3pDw3L42-EXIif-9" value="2nd week&lt;span style=&quot;white-space: pre;&quot;&gt;&#x9;&lt;/span&gt;" style="shape=offPageConnector;whiteSpace=wrap;html=1;" parent="1" vertex="1">
          <mxGeometry x="-30" y="673" width="80" height="80" as="geometry" />
        </mxCell>
        <mxCell id="Ew1GcM3pDw3L42-EXIif-10" value="3rd Saturday&amp;nbsp;&lt;br&gt;6pm-10pm" style="shape=offPageConnector;whiteSpace=wrap;html=1;fontStyle=1;fillColor=#d5e8d4;strokeColor=#82b366;" parent="1" vertex="1">
          <mxGeometry x="110" y="673" width="80" height="80" as="geometry" />
        </mxCell>
        <mxCell id="Ew1GcM3pDw3L42-EXIif-11" value="4th week" style="shape=offPageConnector;whiteSpace=wrap;html=1;" parent="1" vertex="1">
          <mxGeometry x="250" y="673" width="80" height="80" as="geometry" />
        </mxCell>
      </root>
    </mxGraphModel>
  </diagram>
</mxfile>
